<svg width="24" height="24" xmlns="http://www.w3.org/2000/svg">

 <g>
  <title>background</title>
  <rect fill="none" id="canvas_background" height="602" width="802" y="-1" x="-1"/>
 </g>
 <g>
  <title>Layer 1</title>
  <path stroke="#ffffff" fill="#ffffff" id="svg_1" d="m16,15l4.001,5.457l3.999,-5.457l-8,0z"/>
  <path id="svg_2" d="m20,17.009l0,-6.009c0,-3.866 -3.134,-7 -7,-7l-3,0" stroke-width="2" stroke-miterlimit="10" stroke="#ffffff" fill="none"/>
  <path stroke="#ffffff" fill="#ffffff" id="svg_3" d="m8,9l-4.001,-5.457l-3.999,5.457l8,0z"/>
  <path id="svg_4" d="m4,6.991l0,6.009c0,3.866 3.134,7 7,7l3,0" stroke-width="2" stroke-miterlimit="10" stroke="#ffffff" fill="none"/>
  <path fill="#ffffff" id="svg_5" d="m12,5l-2.926,0l-1.481,-2l4.407,0l0,2zm0,14l2.926,0l1.481,2l-4.407,0l0,-2z"/>
 </g>
</svg>