<svg width="44" height="44" xmlns="http://www.w3.org/2000/svg">

 <g>
  <title>background</title>
  <rect fill="none" id="canvas_background" height="402" width="582" y="-1" x="-1"/>
 </g>
 <g>
  <title>Layer 1</title>
  <path stroke="#ffffff" stroke-width="0" opacity="0.7" id="svg_1" fill="#ffffff" d="m38.999996,-0.125004l-34,0c-2.76142,0 -5,2.23858 -5,5l0,34c0,2.7614 2.23858,5 5,5l34,0c2.7614,0 5,-2.2386 5,-5l0,-34c0,-2.76142 -2.2386,-5 -5,-5z"/>
  <path opacity="0.49" id="svg_2" fill="#999999" d="m27.2218,44l-20,-20l-7.2218,7.2218l0,7.7782c0,2.7614 2.23858,5 5,5l22.2218,0z"/>
  <path opacity="0.52" id="svg_3" fill="#666666" d="m34.471799,14.249999l9.7782,9.7782l0,15.2218c0,2.7614 -2.2386,5 -5,5l-11.7782,0l-11.5,-11.5l18.5,-18.5z"/>
  <path opacity="0.9" stroke="#FFE7A2" id="svg_4" fill="#FFE7A2" d="m9.124999,13c2.2091,0 4,-1.7909 4,-4c0,-2.20914 -1.7909,-4 -4,-4c-2.20914,0 -4,1.79086 -4,4c0,2.2091 1.79086,4 4,4z"/>
  <path opacity="0.79" id="svg_5" fill="#000000" d="m14.0492,23.7003c-0.1178,-1.0586 -0.0196,-2.0805 0.2474,-3.025c0.8875,-3.1391 3.6718,-5.4475 6.9745,-5.4882l0,-2.052c0,-0.114 0.1375,-0.1751 0.2278,-0.1059l4.0724,3.1024c0.0667,0.0529 0.0667,0.1588 0,0.2076l-4.0685,3.1024c-0.0942,0.0692 -0.2278,0.0082 -0.2278,-0.1058l0,-2.0479c-2.1716,0.0366 -4.0252,1.425 -4.8224,3.3874c-0.3024,0.7409 -0.4556,1.5593 -0.4124,2.4183c0.0589,1.1807 0.487,2.2678 1.1625,3.1472c0.3612,0.4682 0.2748,1.1522 -0.1925,1.5064c-0.4437,0.3379 -1.0642,0.2443 -1.4059,-0.2036c-0.8364,-1.0829 -1.3941,-2.4021 -1.5551,-3.8433zm11.7577,-3.9411c0.6794,0.8753 1.1075,1.9665 1.1624,3.1472c0.0432,0.8631 -0.1139,1.6814 -0.4123,2.4183c-0.7972,1.9624 -2.6508,3.3549 -4.8225,3.3874l0,-2.0479c0,-0.114 -0.1374,-0.175 -0.2278,-0.1058l-4.0723,3.1023c-0.0668,0.053 -0.0668,0.1588 0,0.2077l4.0684,3.1024c0.0943,0.0692 0.2278,0.0081 0.2278,-0.1059l0,-2.052c3.3027,-0.0366 6.0909,-2.3451 6.9745,-5.4882c0.267,-0.9445 0.3613,-1.9664 0.2474,-3.025c-0.1571,-1.4412 -0.7147,-2.7604 -1.5512,-3.8433c-0.3456,-0.4479 -0.9621,-0.5415 -1.4059,-0.2036c-0.4634,0.3542 -0.5498,1.0382 -0.1885,1.5064z"/>
 </g>
</svg>