<svg width="1024" height="768" xmlns="http://www.w3.org/2000/svg">
 <metadata>Svg Vector Icons : http://www.onlinewebfonts.com/icon</metadata>

 <g>
  <title>background</title>
  <rect fill="none" id="canvas_background" height="770" width="1026" y="-1" x="-1"/>
 </g>
 <g>
  <title>Layer 1</title>
  <g id="svg_1">
   <path fill="#ffffff" id="svg_2" d="m742.8,353.3l-408.3,0c-11.3,0 -20.4,-9.1 -20.4,-20.4c0,-11.3 9.1,-20.4 20.4,-20.4l408.3,0c11.3,0 20.4,9.1 20.4,20.4c0.1,11.3 -9.1,20.4 -20.4,20.4z"/>
   <path fill="#ffffff" id="svg_3" d="m622,271.9l-408.3,0c-11.3,0 -20.4,-9.1 -20.4,-20.4s9.1,-20.4 20.4,-20.4l408.3,0c11.3,0 20.4,9.1 20.4,20.4s-9.1,20.4 -20.4,20.4z"/>
   <path fill="#ffffff" id="svg_4" d="m865.3,435l-408.3,0c-11.3,0 -20.4,-9.1 -20.4,-20.4s9.1,-20.4 20.4,-20.4l408.3,0c11.3,0 20.4,9.1 20.4,20.4s-9.1,20.4 -20.4,20.4z"/>
   <path fill="#ffffff" id="svg_5" d="m620.3,516.7l-408.3,0c-11.3,0 -20.4,-9.1 -20.4,-20.4c0,-11.3 9.1,-20.4 20.4,-20.4l408.3,0c11.3,0 20.4,9.1 20.4,20.4c0.1,11.2 -9.1,20.4 -20.4,20.4z"/>
   <path fill="#ffffff" id="svg_6" d="m742.8,598.3l-408.3,0c-11.3,0 -20.4,-9.1 -20.4,-20.4c0,-11.3 9.1,-20.4 20.4,-20.4l408.3,0c11.3,0 20.4,9.1 20.4,20.4c0.1,11.3 -9.1,20.4 -20.4,20.4z"/>
  </g>
 </g>
</svg>